<svg width="56" height="56" viewBox="0 0 56 56" fill="none" xmlns="http://www.w3.org/2000/svg">
<g clip-path="url(#clip0_253_120)">
<path d="M42.2299 32.2183C42.2299 22.04 34.0007 13.7891 23.8493 13.7891C13.6979 13.7891 5.46875 22.04 5.46875 32.2183C5.46875 42.3966 13.6979 50.6476 23.8493 50.6476C34.0007 50.6476 42.2299 42.3966 42.2299 32.2183Z" fill="#89C8FD"/>
<path d="M23.8491 13.7891C22.9058 13.7891 21.9786 13.8604 21.0737 13.998C29.9079 15.3395 36.6785 22.986 36.6785 32.2183C36.6785 41.4507 29.9079 49.0971 21.0737 50.4387C21.9786 50.5762 22.9058 50.6476 23.8491 50.6476C34.0005 50.6476 42.2297 42.3966 42.2297 32.2183C42.2297 22.04 34.0005 13.7891 23.8491 13.7891Z" fill="#60B6FF"/>
<path d="M21.4599 20.9533C18.6286 22.7277 16.5047 25.5663 18.0975 28.7604C19.6903 31.954 23.2296 30.712 26.5036 30.2686C29.7776 29.8251 27.3 39.9388 29.2465 42.4229C31.193 44.9069 36.6789 39.9388 36.1482 36.7448C35.3621 32.016 35.0865 30.357 41.4572 26.986L41.4743 26.9796C39.3269 19.7083 32.8268 14.313 25.0001 13.8281L24.9992 13.8559C24.9992 13.8559 24.2913 19.179 21.4599 20.9533Z" fill="#BAEB6C"/>
<path d="M11.6386 40.5578C10.7884 39.2611 13.1429 36.211 13.6736 33.9043C14.2046 31.5976 11.0191 31.7749 10.0458 30.9764C9.07257 30.1779 7.74512 26.718 6.77185 25.9195L6.61633 25.7969C5.87463 27.7964 5.46875 29.96 5.46875 32.2184C5.46875 38.3101 8.41675 43.7104 12.9601 47.0656L12.9656 46.6794C12.9656 46.6794 13.6736 43.663 11.6386 40.5578Z" fill="#BAEB6C"/>
<path d="M36.1484 36.7485C36.1445 36.7254 36.1407 36.7028 36.1369 36.6797C35.7852 38.1003 35.2691 39.4559 34.6099 40.7249C35.6553 39.491 36.3539 37.9866 36.1484 36.7485Z" fill="#BAEB6C"/>
<path d="M25.0005 13.8281L24.9996 13.8559C24.9996 13.8559 24.9407 14.3002 24.7886 14.974C31.234 17.4136 35.9529 23.3805 36.6024 30.5275C37.4146 29.4166 38.9001 28.3391 41.4576 26.986L41.4747 26.9796C39.3273 19.7083 32.8272 14.313 25.0005 13.8281Z" fill="#96D629"/>
<path d="M23.8241 55.9982C22.5223 55.9982 21.211 55.8914 19.9007 55.6748C13.6368 54.6404 8.15056 51.2289 4.45275 46.0686C0.754933 40.9083 -0.711803 34.6167 0.322987 28.3533C0.397755 27.8995 0.827564 27.5928 1.28002 27.6675C1.73375 27.7423 2.04094 28.1708 1.96575 28.6246C1.00402 34.4492 2.36779 40.2999 5.80669 45.0987C9.24559 49.8976 14.3469 53.0699 20.1724 54.032C32.1981 56.0187 43.5953 47.8511 45.5816 35.8271C46.5433 30.0024 45.1796 24.1517 41.7407 19.3529C38.3022 14.5541 33.2004 11.3818 27.3754 10.4196C26.9216 10.3448 26.6144 9.91631 26.6892 9.46258C26.7644 9.00884 27.1938 8.70208 27.6462 8.77685C33.9105 9.81121 39.3968 13.2228 43.0942 18.383C46.792 23.5433 48.2587 29.835 47.2244 36.0984C46.19 42.3618 42.778 47.8476 37.6173 51.545C33.5358 54.4691 28.7472 55.9982 23.8241 55.9982Z" fill="#09A66D"/>
<path d="M18.7692 20.1126C9.88074 18.6044 4.3667 7.41313 4.3667 7.41313C4.3667 7.41313 13.2641 -1.33303 22.1525 0.174724C31.041 1.68248 36.555 12.8738 36.555 12.8738C36.555 12.8738 27.6576 21.6203 18.7692 20.1126Z" fill="#49CB5C"/>
<path d="M22.1525 0.174478C20.455 -0.113486 18.758 -0.0267554 17.1221 0.300942C25.6392 2.2133 30.8931 12.8735 30.8931 12.8735C30.8931 12.8735 25.0688 18.5982 18.1372 19.9859C18.3461 20.0329 18.5563 20.076 18.7691 20.1123C27.6575 21.6201 36.5549 12.8735 36.5549 12.8735C36.5549 12.8735 31.0409 1.68223 22.1525 0.174478Z" fill="#07B128"/>
<path d="M36.0526 11.9445L27.3602 10.4781L19.2408 0.0234375C18.5931 0.0614624 17.9514 0.144348 17.3182 0.263123L24.9335 10.0684L18.3791 8.96271L12.7864 1.72687C12.2618 1.96356 11.7516 2.21478 11.2599 2.4754L15.9583 8.55426L5.12036 6.72565C4.63373 7.15076 4.3667 7.41309 4.3667 7.41309C4.3667 7.41309 4.54529 7.77496 4.88794 8.37524L15.6669 10.1936L9.6889 14.816C10.0739 15.2125 10.4776 15.6042 10.8997 15.9845L17.9014 10.5709L24.8403 11.7415L15.4033 19.0427C15.9891 19.3162 16.5945 19.5529 17.2187 19.7434L27.0748 12.1188L35.7727 13.5859C36.2769 13.1463 36.555 12.8737 36.555 12.8737C36.555 12.8737 36.3828 12.5251 36.0526 11.9445Z" fill="#09A66D"/>
<path d="M42.6004 9.25269C44.9849 3.61047 53.2465 1.71094 53.2465 1.71094C53.2465 1.71094 57.6425 8.95917 55.258 14.6014C52.874 20.2436 44.6119 22.1431 44.6119 22.1431C44.6119 22.1431 40.216 14.8949 42.6004 9.25269Z" fill="#49CB5C"/>
<path d="M53.2466 1.71094C53.2466 1.71094 51.368 2.14331 49.1438 3.20715C50.285 5.62451 52.0939 10.5306 50.3734 14.6014C49.1263 17.5528 46.2706 19.4801 43.8306 20.6469C44.2711 21.58 44.6124 22.1431 44.6124 22.1431C44.6124 22.1431 52.8741 20.2436 55.2585 14.6014C57.6426 8.95917 53.2466 1.71094 53.2466 1.71094Z" fill="#07B128"/>
<path d="M55.9338 9.94781L49.5807 12.613L53.7519 2.64062C53.4532 2.05103 53.2469 1.71094 53.2469 1.71094C53.2469 1.71094 52.8538 1.80151 52.2142 2.00146L47.9033 12.3075L45.23 5.73004C44.7772 6.12952 44.3499 6.5636 43.9624 7.034L46.9916 14.4873L44.1461 21.2899C44.4238 21.8321 44.6122 22.1431 44.6122 22.1431C44.6122 22.1431 45.0395 22.0449 45.7265 21.827L48.6647 14.803L55.9313 11.7551C55.9796 11.1514 55.977 10.546 55.9338 9.94781Z" fill="#09A66D"/>
</g>
<defs>
<clipPath id="clip0_253_120">
<rect width="56" height="56" fill="white"/>
</clipPath>
</defs>
</svg>
